<svg xmlns="http://www.w3.org/2000/svg" xmlns:xlink="http://www.w3.org/1999/xlink" width="2000" zoomAndPan="magnify" viewBox="0 0 1500 1499.999933" height="2000" preserveAspectRatio="xMidYMid meet" version="1.0"><defs><g/><clipPath id="f462ea5263"><path d="M 1 1.417969 L 629 1.417969 L 629 695.691406 L 1 695.691406 Z M 1 1.417969 " clip-rule="nonzero"/></clipPath><clipPath id="0c758f16db"><path d="M 146.2158 166.5581 L 496.1123 166.5581 L 496.1123 437.9301 L 146.2158 437.9301 Z M 146.2158 166.5581 " clip-rule="nonzero"/></clipPath><clipPath id="9ba1aadd6f"><path d="M 271 330 L 371 330 L 371 489.757812 L 271 489.757812 Z M 271 330 " clip-rule="nonzero"/></clipPath><clipPath id="11f3690eca"><rect x="0" width="630" y="0" height="697"/></clipPath><clipPath id="3106fa467b"><rect x="0" width="655" y="0" height="88"/></clipPath></defs><g transform="matrix(1, 0, 0, 1, 435, 210)"><g clip-path="url(#11f3690eca)"><g clip-path="url(#f462ea5263)"><path fill="#ffffff" d="M 315.203125 695.710938 L 312.425781 694.878906 C 225.796875 667.808594 155.964844 619.636719 104.460938 551.746094 C 63.507812 497.605469 34.214844 430.828125 17.554688 353.5 C -10.765625 222.308594 6.585938 107.496094 7.421875 102.636719 L 8.253906 96.945312 L 315.0625 1.570312 L 621.875 96.945312 L 622.707031 102.636719 C 623.402344 107.496094 640.753906 222.308594 612.574219 353.5 C 595.914062 430.828125 566.621094 497.605469 525.667969 551.746094 C 474.300781 619.636719 404.332031 667.808594 317.703125 694.878906 Z M 24.773438 110.96875 C 21.582031 135.679688 11.308594 238.132812 35.601562 350.167969 C 51.707031 424.859375 79.890625 488.996094 119.316406 540.917969 C 167.765625 604.917969 233.710938 650.59375 315.203125 676.554688 C 396.832031 650.453125 462.777344 604.78125 511.226562 540.640625 C 550.65625 488.582031 578.699219 424.304688 594.804688 349.613281 C 618.960938 237.71875 608.6875 135.539062 605.492188 110.96875 L 315.0625 20.730469 Z M 24.773438 110.96875 " fill-opacity="1" fill-rule="nonzero"/></g><g clip-path="url(#0c758f16db)" transform="translate(57.810, 54.404) scale(0.82)"><path fill="#ff751f" d="M 490.175781 136.878906 L 151.929688 136.878906 C 127.664062 136.878906 107.8125 156.734375 107.8125 181 L 107.8125 423.65625 C 107.8125 447.921875 127.664062 467.773438 151.929688 467.773438 L 490.175781 467.773438 C 514.441406 467.773438 534.296875 447.921875 534.296875 423.65625 L 534.296875 181 C 534.296875 156.734375 514.441406 136.878906 490.175781 136.878906 Z M 519.589844 219.234375 C 504.148438 204.53125 483.558594 195.707031 462.234375 195.707031 L 384.289062 195.707031 C 365.90625 195.707031 349.730469 185.410156 341.640625 169.234375 L 332.816406 151.585938 L 490.175781 151.585938 C 506.351562 151.585938 519.589844 164.824219 519.589844 181 Z M 519.589844 219.234375 " fill-opacity="1" fill-rule="nonzero"/></g><path fill="#ffffff" d="M 241.976562 295.109375 C 240.328125 293.90625 238.015625 294.269531 236.8125 295.925781 C 211.304688 331.007812 221.144531 369.125 221.578125 370.730469 C 222.023438 372.378906 223.511719 373.464844 225.144531 373.464844 C 225.460938 373.464844 225.78125 373.425781 226.101562 373.339844 C 228.074219 372.8125 229.242188 370.785156 228.71875 368.816406 C 228.625 368.457031 219.421875 332.421875 242.792969 300.273438 C 243.996094 298.621094 243.628906 296.308594 241.976562 295.109375 Z M 241.976562 295.109375 " fill-opacity="1" fill-rule="nonzero"/><path fill="#ffffff" d="M 339.898438 260.496094 C 283.777344 244.035156 247.066406 282.476562 246.703125 282.871094 C 245.3125 284.359375 245.390625 286.695312 246.878906 288.089844 C 247.59375 288.753906 248.5 289.085938 249.40625 289.085938 C 250.390625 289.085938 251.375 288.691406 252.105469 287.917969 C 253.472656 286.464844 286.179688 252.445312 337.816406 267.589844 C 339.773438 268.167969 341.828125 267.042969 342.402344 265.082031 C 342.976562 263.121094 341.855469 261.066406 339.898438 260.496094 Z M 339.898438 260.496094 " fill-opacity="1" fill-rule="nonzero"/><path fill="#ffffff" d="M 396.894531 377.058594 C 397.175781 377.125 397.457031 377.15625 397.734375 377.15625 C 399.414062 377.15625 400.933594 376.003906 401.332031 374.296875 C 417.285156 305.804688 362.351562 270.410156 361.796875 270.0625 C 360.066406 268.980469 357.785156 269.5 356.699219 271.226562 C 355.613281 272.957031 356.132812 275.238281 357.863281 276.324219 C 358.375 276.648438 408.902344 309.203125 394.128906 372.617188 C 393.667969 374.609375 394.902344 376.597656 396.894531 377.058594 Z M 396.894531 377.058594 " fill-opacity="1" fill-rule="nonzero"/><path fill="#ffffff" d="M 240.691406 348.941406 C 240.734375 348.945312 240.773438 348.945312 240.816406 348.945312 C 242.800781 348.945312 244.441406 347.371094 244.511719 345.371094 C 244.527344 344.839844 246.914062 292.25 299.800781 283.320312 C 301.8125 282.980469 303.167969 281.074219 302.828125 279.0625 C 302.488281 277.046875 300.585938 275.675781 298.566406 276.03125 C 239.796875 285.953125 237.140625 344.53125 237.121094 345.121094 C 237.050781 347.160156 238.648438 348.875 240.691406 348.941406 Z M 240.691406 348.941406 " fill-opacity="1" fill-rule="nonzero"/><path fill="#ffffff" d="M 321.125 277.914062 C 320.785156 279.921875 322.136719 281.832031 324.148438 282.175781 C 325.769531 282.453125 363.9375 289.410156 375.238281 327.242188 C 375.714844 328.847656 377.1875 329.882812 378.777344 329.882812 C 379.128906 329.882812 379.484375 329.832031 379.835938 329.726562 C 381.792969 329.144531 382.90625 327.085938 382.320312 325.128906 C 369.679688 282.804688 327.183594 275.191406 325.382812 274.886719 C 323.371094 274.550781 321.464844 275.902344 321.125 277.914062 Z M 321.125 277.914062 " fill-opacity="1" fill-rule="nonzero"/><path fill="#ffffff" d="M 270.742188 321.839844 C 270.886719 321.636719 285.472656 301.371094 307.621094 298.960938 C 321.117188 297.480469 334.78125 302.953125 348.246094 315.195312 C 349.757812 316.570312 352.09375 316.460938 353.46875 314.949219 C 354.839844 313.4375 354.730469 311.097656 353.21875 309.726562 C 338.121094 295.996094 322.503906 289.898438 306.824219 291.609375 C 281.398438 294.375 265.375 316.625 264.707031 317.570312 C 263.527344 319.234375 263.921875 321.542969 265.585938 322.722656 C 266.238281 323.179688 266.980469 323.402344 267.71875 323.402344 C 268.878906 323.402344 270.019531 322.859375 270.742188 321.839844 Z M 270.742188 321.839844 " fill-opacity="1" fill-rule="nonzero"/><path fill="#ffffff" d="M 266.011719 334.488281 C 266.742188 332.582031 265.785156 330.445312 263.878906 329.714844 C 261.976562 328.988281 259.832031 329.945312 259.105469 331.851562 C 257.257812 336.683594 256.265625 342.164062 255.984375 349.097656 C 255.832031 352.894531 255.863281 356.808594 255.890625 360.597656 C 255.992188 373.125 256.097656 386.078125 249.507812 396.535156 C 247.847656 399.167969 245.625 401.59375 243.558594 403.019531 C 241.878906 404.179688 241.460938 406.484375 242.621094 408.164062 C 243.339844 409.203125 244.492188 409.757812 245.667969 409.757812 C 246.390625 409.757812 247.125 409.542969 247.765625 409.101562 C 250.648438 407.105469 253.566406 403.964844 255.761719 400.480469 C 263.507812 388.183594 263.394531 374.128906 263.285156 360.539062 C 263.253906 356.667969 263.226562 353.011719 263.371094 349.398438 C 263.621094 343.289062 264.460938 338.554688 266.011719 334.488281 Z M 266.011719 334.488281 " fill-opacity="1" fill-rule="nonzero"/><path fill="#ffffff" d="M 234.691406 394.589844 C 235.269531 394.917969 235.894531 395.070312 236.515625 395.070312 C 237.800781 395.070312 239.050781 394.402344 239.734375 393.203125 C 247.371094 379.757812 244.339844 361.292969 244.207031 360.511719 C 243.863281 358.503906 241.957031 357.144531 239.945312 357.488281 C 237.933594 357.828125 236.578125 359.738281 236.914062 361.75 C 236.945312 361.914062 239.625 378.421875 233.304688 389.546875 C 232.296875 391.324219 232.917969 393.582031 234.691406 394.589844 Z M 234.691406 394.589844 " fill-opacity="1" fill-rule="nonzero"/><path fill="#ffffff" d="M 305 313.558594 C 304.410156 311.601562 302.347656 310.496094 300.394531 311.082031 C 299.402344 311.378906 276.023438 318.695312 273.261719 344.851562 C 273.25 344.992188 272.238281 359.234375 272.492188 380.488281 C 272.496094 380.773438 272.539062 381.050781 272.605469 381.316406 C 274.894531 380.285156 277.355469 379.628906 279.878906 379.402344 C 279.671875 359.050781 280.625 345.527344 280.625 345.507812 C 282.851562 324.453125 301.726562 318.40625 302.535156 318.160156 C 304.484375 317.566406 305.585938 315.507812 305 313.558594 Z M 305 313.558594 " fill-opacity="1" fill-rule="nonzero"/><path fill="#ffffff" d="M 344.757812 382.476562 C 346.707031 382.5625 348.597656 382.910156 350.40625 383.460938 C 352.5625 363.101562 351.246094 345.6875 351.179688 344.832031 L 351.152344 344.601562 C 346.644531 312.863281 316.902344 309.574219 316.601562 309.546875 C 314.578125 309.339844 312.761719 310.832031 312.5625 312.863281 C 312.363281 314.894531 313.847656 316.703125 315.878906 316.90625 C 316.121094 316.929688 340.058594 319.578125 343.816406 345.519531 C 343.921875 346.992188 344.972656 362.71875 343.21875 380.972656 C 343.746094 381.460938 344.28125 381.941406 344.757812 382.476562 Z M 344.757812 382.476562 " fill-opacity="1" fill-rule="nonzero"/><path fill="#ffffff" d="M 367.589844 390.0625 C 371.617188 353.695312 367.070312 333.566406 366.839844 332.585938 C 366.371094 330.59375 364.382812 329.359375 362.394531 329.832031 C 360.40625 330.296875 359.171875 332.285156 359.640625 334.273438 C 359.695312 334.5 364.0625 353.8125 360.296875 388.675781 C 362.855469 388.742188 365.308594 389.222656 367.589844 390.0625 Z M 367.589844 390.0625 " fill-opacity="1" fill-rule="nonzero"/><path fill="#ffffff" d="M 381.203125 404.417969 C 382.675781 404.152344 383.898438 403.003906 384.1875 401.445312 C 388.515625 377.878906 386.109375 342.664062 386.007812 341.175781 C 385.863281 339.140625 384.113281 337.625 382.058594 337.746094 C 380.023438 337.890625 378.488281 339.65625 378.628906 341.695312 C 378.65625 342.035156 380.871094 374.496094 377.40625 397.144531 C 379.113281 399.289062 380.417969 401.746094 381.203125 404.417969 Z M 381.203125 404.417969 " fill-opacity="1" fill-rule="nonzero"/><path fill="#ffffff" d="M 290.167969 380.800781 C 290.164062 380.820312 290.160156 380.839844 290.15625 380.859375 C 290.160156 380.859375 290.164062 380.859375 290.167969 380.863281 Z M 290.167969 380.800781 " fill-opacity="1" fill-rule="nonzero"/><g clip-path="url(#9ba1aadd6f)"><path fill="#ffffff" d="M 287.742188 441.257812 C 291.503906 451.804688 295.796875 458.433594 299.238281 463.761719 C 303.902344 470.957031 307.269531 476.152344 307.269531 486.984375 C 307.269531 488.246094 308.324219 489.269531 309.617188 489.269531 L 355.632812 489.269531 C 356.9375 489.269531 357.992188 488.246094 357.992188 486.984375 C 357.992188 483.304688 360.300781 478.769531 362.996094 473.527344 C 366.722656 466.234375 370.960938 457.972656 370.960938 448.332031 L 370.960938 431.539062 C 370.980469 431.390625 370.988281 431.238281 370.988281 431.085938 L 370.988281 410.347656 C 370.988281 404.492188 365.898438 399.730469 359.644531 399.730469 C 357.855469 399.730469 356.105469 400.136719 354.542969 400.890625 C 354.464844 400.632812 354.355469 400.40625 354.191406 400.199219 C 352.503906 396.308594 348.453125 393.542969 343.699219 393.542969 C 342.015625 393.542969 340.375 393.894531 338.878906 394.5625 C 337.859375 389.683594 333.257812 385.996094 327.746094 385.996094 C 326.234375 385.996094 324.722656 386.285156 323.335938 386.820312 L 323.335938 341.320312 C 323.335938 335.144531 318.433594 330.296875 312.175781 330.296875 C 306.054688 330.296875 301.257812 335.144531 301.257812 341.320312 L 301.257812 409.5625 C 297.757812 403.507812 294.058594 398.21875 290.507812 394.222656 C 288.339844 391.792969 285.21875 390.398438 281.914062 390.398438 C 279.191406 390.398438 276.570312 391.351562 274.507812 393.070312 C 264.679688 401.261719 279.347656 419.660156 282.683594 428.550781 C 284.304688 432.871094 285.980469 437.339844 287.742188 441.257812 Z M 287.742188 441.257812 " fill-opacity="1" fill-rule="nonzero"/></g></g></g><g transform="matrix(1, 0, 0, 1, 421, 938)"><g clip-path="url(#3106fa467b)"><g fill="#ffffff" fill-opacity="1"><g transform="translate(0.98826, 66.982417)"><g><path d="M 44.109375 -38.546875 C 48.191406 -38.546875 51.300781 -37.113281 53.4375 -34.25 C 55.476562 -31.425781 56.5 -27.453125 56.5 -22.328125 L 56.5 -15.4375 C 56.5 -10.945312 55.503906 -7.265625 53.515625 -4.390625 C 51.484375 -1.460938 48.296875 0 43.953125 0 L 8.625 0 C 8.257812 0 7.785156 -0.140625 7.203125 -0.421875 C 6.628906 -0.710938 6.34375 -1.460938 6.34375 -2.671875 L 6.34375 -8.9375 C 6.34375 -10.132812 6.628906 -10.875 7.203125 -11.15625 C 7.785156 -11.445312 8.257812 -11.59375 8.625 -11.59375 L 42.078125 -11.59375 C 42.753906 -11.59375 43.234375 -11.707031 43.515625 -11.9375 C 43.804688 -12.175781 44.03125 -12.398438 44.1875 -12.609375 C 44.664062 -13.398438 44.90625 -14.5 44.90625 -15.90625 L 44.90625 -22.640625 C 44.90625 -24.578125 44.585938 -25.78125 43.953125 -26.25 C 43.328125 -26.71875 42.726562 -26.953125 42.15625 -26.953125 L 18.65625 -26.953125 C 17.03125 -26.953125 15.367188 -27.160156 13.671875 -27.578125 C 11.972656 -27.992188 10.523438 -29.015625 9.328125 -30.640625 C 7.285156 -33.515625 6.265625 -37.691406 6.265625 -43.171875 L 6.265625 -49.125 C 6.265625 -53.726562 7.285156 -57.441406 9.328125 -60.265625 C 11.359375 -63.128906 14.519531 -64.5625 18.8125 -64.5625 L 52.578125 -64.5625 C 52.890625 -64.5625 53.332031 -64.414062 53.90625 -64.125 C 54.476562 -63.84375 54.765625 -63.101562 54.765625 -61.90625 L 54.765625 -55.640625 C 54.765625 -54.429688 54.476562 -53.679688 53.90625 -53.390625 C 53.332031 -53.109375 52.890625 -52.96875 52.578125 -52.96875 L 20.6875 -52.96875 C 20.007812 -52.96875 19.523438 -52.863281 19.234375 -52.65625 C 18.953125 -52.445312 18.734375 -52.210938 18.578125 -51.953125 C 18.148438 -51.117188 17.9375 -50.019531 17.9375 -48.65625 L 17.9375 -42.859375 C 17.9375 -40.929688 18.238281 -39.726562 18.84375 -39.25 C 19.445312 -38.78125 20.035156 -38.546875 20.609375 -38.546875 Z M 44.109375 -38.546875 "/></g></g></g><g fill="#ffffff" fill-opacity="1"><g transform="translate(63.115918, 66.982417)"><g><path d="M 53.359375 -14.03125 C 53.722656 -14.03125 54.191406 -13.882812 54.765625 -13.59375 C 55.347656 -13.3125 55.640625 -12.566406 55.640625 -11.359375 L 55.640625 -2.75 C 55.640625 -1.539062 55.347656 -0.789062 54.765625 -0.5 C 54.191406 -0.21875 53.722656 -0.078125 53.359375 -0.078125 L 25.546875 -0.078125 C 23.816406 -0.078125 22.222656 -0.179688 20.765625 -0.390625 C 19.304688 -0.597656 17.972656 -0.9375 16.765625 -1.40625 C 14.203125 -2.300781 12.164062 -3.738281 10.65625 -5.71875 C 9.09375 -7.757812 7.96875 -10.320312 7.28125 -13.40625 C 7.019531 -14.707031 6.796875 -16.140625 6.609375 -17.703125 C 6.429688 -19.273438 6.316406 -20.972656 6.265625 -22.796875 L 6.265625 -23.1875 L 6.421875 -33.0625 C 6.578125 -33.632812 6.863281 -34.289062 7.28125 -35.03125 C 8.4375 -37.0625 10.210938 -38.15625 12.609375 -38.3125 L 53.046875 -38.390625 C 53.359375 -38.390625 53.800781 -38.242188 54.375 -37.953125 C 54.957031 -37.671875 55.25 -36.929688 55.25 -35.734375 L 55.25 -29.546875 C 55.25 -28.335938 54.957031 -27.578125 54.375 -27.265625 C 53.800781 -26.953125 53.359375 -26.796875 53.046875 -26.796875 L 18.015625 -26.796875 C 18.015625 -26.796875 18 -26.507812 17.96875 -25.9375 C 17.945312 -25.363281 17.921875 -24.707031 17.890625 -23.96875 C 17.867188 -23.238281 17.859375 -22.585938 17.859375 -22.015625 C 17.859375 -21.441406 17.859375 -21.15625 17.859375 -21.15625 C 17.910156 -20.945312 17.9375 -20.722656 17.9375 -20.484375 C 17.9375 -20.253906 17.960938 -20.035156 18.015625 -19.828125 C 18.234375 -18.359375 18.679688 -17.179688 19.359375 -16.296875 C 19.984375 -15.515625 20.765625 -14.941406 21.703125 -14.578125 C 22.273438 -14.421875 22.890625 -14.289062 23.546875 -14.1875 C 24.203125 -14.082031 24.945312 -14.03125 25.78125 -14.03125 Z M 13.171875 -37.6875 Z M 53.4375 -64.71875 C 53.75 -64.71875 54.191406 -64.5625 54.765625 -64.25 C 55.347656 -63.9375 55.640625 -63.179688 55.640625 -61.984375 L 55.640625 -55.796875 C 55.640625 -54.585938 55.347656 -53.828125 54.765625 -53.515625 C 54.191406 -53.203125 53.75 -53.046875 53.4375 -53.046875 L 8.390625 -53.125 C 8.078125 -53.125 7.644531 -53.265625 7.09375 -53.546875 C 6.539062 -53.835938 6.265625 -54.585938 6.265625 -55.796875 L 6.265625 -61.90625 C 6.265625 -63.15625 6.539062 -63.9375 7.09375 -64.25 C 7.644531 -64.5625 8.078125 -64.71875 8.390625 -64.71875 Z M 53.4375 -64.71875 "/></g></g></g><g fill="#ffffff" fill-opacity="1"><g transform="translate(124.381788, 66.982417)"><g><path d="M 48.265625 -57.28125 L 70.28125 -2.984375 C 70.601562 -2.242188 70.679688 -1.613281 70.515625 -1.09375 C 70.460938 -0.882812 70.316406 -0.632812 70.078125 -0.34375 C 69.847656 -0.0625 69.421875 0.078125 68.796875 0.078125 L 60.421875 0.078125 C 59.316406 0.078125 58.554688 -0.492188 58.140625 -1.640625 L 38.703125 -50.15625 C 38.648438 -50.257812 38.625 -50.3125 38.625 -50.3125 L 38.3125 -50.3125 C 38.3125 -50.3125 38.296875 -50.296875 38.265625 -50.265625 C 38.242188 -50.242188 38.207031 -50.179688 38.15625 -50.078125 L 28.125 -24.6875 L 37.84375 -24.6875 C 38.945312 -24.6875 39.707031 -24.160156 40.125 -23.109375 L 42.9375 -16.140625 C 43.195312 -15.253906 43.09375 -14.5 42.625 -13.875 C 42.207031 -13.132812 41.53125 -12.765625 40.59375 -12.765625 L 23.421875 -12.765625 L 18.96875 -1.5625 C 18.550781 -0.46875 17.816406 0.078125 16.765625 0.078125 L 8.15625 0.078125 C 7.519531 0.078125 7.082031 -0.0625 6.84375 -0.34375 C 6.613281 -0.632812 6.472656 -0.882812 6.421875 -1.09375 C 6.265625 -1.5625 6.316406 -2.191406 6.578125 -2.984375 L 28.4375 -57.28125 C 29.488281 -60.050781 30.640625 -61.957031 31.890625 -63 C 32.046875 -63.101562 32.226562 -63.234375 32.4375 -63.390625 C 32.644531 -63.546875 32.851562 -63.675781 33.0625 -63.78125 C 34.632812 -64.882812 36.4375 -65.4375 38.46875 -65.4375 C 40.613281 -65.4375 42.546875 -64.78125 44.265625 -63.46875 C 45.992188 -62.164062 47.171875 -60.492188 47.796875 -58.453125 C 47.898438 -58.296875 47.988281 -58.113281 48.0625 -57.90625 C 48.144531 -57.695312 48.210938 -57.488281 48.265625 -57.28125 Z M 48.265625 -57.28125 "/></g></g></g><g fill="#ffffff" fill-opacity="1"><g transform="translate(200.690049, 66.982417)"><g><path d="M 51.484375 -11.59375 C 51.847656 -11.59375 52.300781 -11.4375 52.84375 -11.125 C 53.394531 -10.8125 53.671875 -10.054688 53.671875 -8.859375 L 53.671875 -2.671875 C 53.671875 -1.460938 53.394531 -0.703125 52.84375 -0.390625 C 52.300781 -0.078125 51.847656 0.078125 51.484375 0.078125 L 25.625 0.078125 C 22.175781 0.078125 19.25 -0.363281 16.84375 -1.25 C 14.394531 -2.082031 12.359375 -3.546875 10.734375 -5.640625 C 9.222656 -7.523438 8.097656 -10.085938 7.359375 -13.328125 C 6.628906 -16.503906 6.265625 -20.238281 6.265625 -24.53125 L 6.265625 -61.828125 C 6.265625 -63.078125 6.550781 -63.84375 7.125 -64.125 C 7.707031 -64.414062 8.179688 -64.5625 8.546875 -64.5625 L 15.75 -64.5625 C 16.0625 -64.5625 16.503906 -64.414062 17.078125 -64.125 C 17.648438 -63.84375 17.9375 -63.078125 17.9375 -61.828125 L 17.9375 -23.1875 C 17.9375 -22.039062 17.960938 -20.972656 18.015625 -19.984375 C 18.066406 -18.992188 18.175781 -18.101562 18.34375 -17.3125 C 18.550781 -15.90625 18.992188 -14.757812 19.671875 -13.875 C 20.191406 -13.03125 20.945312 -12.453125 21.9375 -12.140625 C 22.976562 -11.773438 24.335938 -11.59375 26.015625 -11.59375 Z M 51.484375 -11.59375 "/></g></g></g><g fill="#ffffff" fill-opacity="1"><g transform="translate(259.997253, 66.982417)"><g><path d="M 48.265625 -57.28125 L 70.28125 -2.984375 C 70.601562 -2.242188 70.679688 -1.613281 70.515625 -1.09375 C 70.460938 -0.882812 70.316406 -0.632812 70.078125 -0.34375 C 69.847656 -0.0625 69.421875 0.078125 68.796875 0.078125 L 60.421875 0.078125 C 59.316406 0.078125 58.554688 -0.492188 58.140625 -1.640625 L 38.703125 -50.15625 C 38.648438 -50.257812 38.625 -50.3125 38.625 -50.3125 L 38.3125 -50.3125 C 38.3125 -50.3125 38.296875 -50.296875 38.265625 -50.265625 C 38.242188 -50.242188 38.207031 -50.179688 38.15625 -50.078125 L 28.125 -24.6875 L 37.84375 -24.6875 C 38.945312 -24.6875 39.707031 -24.160156 40.125 -23.109375 L 42.9375 -16.140625 C 43.195312 -15.253906 43.09375 -14.5 42.625 -13.875 C 42.207031 -13.132812 41.53125 -12.765625 40.59375 -12.765625 L 23.421875 -12.765625 L 18.96875 -1.5625 C 18.550781 -0.46875 17.816406 0.078125 16.765625 0.078125 L 8.15625 0.078125 C 7.519531 0.078125 7.082031 -0.0625 6.84375 -0.34375 C 6.613281 -0.632812 6.472656 -0.882812 6.421875 -1.09375 C 6.265625 -1.5625 6.316406 -2.191406 6.578125 -2.984375 L 28.4375 -57.28125 C 29.488281 -60.050781 30.640625 -61.957031 31.890625 -63 C 32.046875 -63.101562 32.226562 -63.234375 32.4375 -63.390625 C 32.644531 -63.546875 32.851562 -63.675781 33.0625 -63.78125 C 34.632812 -64.882812 36.4375 -65.4375 38.46875 -65.4375 C 40.613281 -65.4375 42.546875 -64.78125 44.265625 -63.46875 C 45.992188 -62.164062 47.171875 -60.492188 47.796875 -58.453125 C 47.898438 -58.296875 47.988281 -58.113281 48.0625 -57.90625 C 48.144531 -57.695312 48.210938 -57.488281 48.265625 -57.28125 Z M 48.265625 -57.28125 "/></g></g></g><g fill="#ffffff" fill-opacity="1"><g transform="translate(336.305514, 66.982417)"><g><path d="M 64.25 -64.5625 C 64.925781 -64.5625 65.398438 -64.222656 65.671875 -63.546875 C 65.828125 -62.921875 65.75 -62.320312 65.4375 -61.75 L 41.6875 -19.828125 L 41.6875 -2.671875 C 41.6875 -1.460938 41.398438 -0.710938 40.828125 -0.421875 C 40.253906 -0.140625 39.8125 0 39.5 0 L 32.28125 0 C 31.96875 0 31.523438 -0.140625 30.953125 -0.421875 C 30.378906 -0.710938 30.09375 -1.460938 30.09375 -2.671875 L 30.09375 -19.828125 L 6.578125 -61.75 C 6.265625 -62.320312 6.1875 -62.894531 6.34375 -63.46875 C 6.5 -64.195312 6.96875 -64.5625 7.75 -64.5625 L 16.6875 -64.5625 C 17.050781 -64.5625 17.441406 -64.46875 17.859375 -64.28125 C 18.285156 -64.101562 18.65625 -63.703125 18.96875 -63.078125 L 36.046875 -31.734375 L 53.28125 -63.15625 C 53.59375 -63.726562 53.957031 -64.101562 54.375 -64.28125 C 54.800781 -64.46875 55.195312 -64.5625 55.5625 -64.5625 Z M 64.25 -64.5625 "/></g></g></g><g fill="#ffffff" fill-opacity="1"><g transform="translate(407.677971, 66.982417)"><g><path d="M 53.359375 -14.03125 C 53.722656 -14.03125 54.191406 -13.882812 54.765625 -13.59375 C 55.347656 -13.3125 55.640625 -12.566406 55.640625 -11.359375 L 55.640625 -2.75 C 55.640625 -1.539062 55.347656 -0.789062 54.765625 -0.5 C 54.191406 -0.21875 53.722656 -0.078125 53.359375 -0.078125 L 25.546875 -0.078125 C 23.816406 -0.078125 22.222656 -0.179688 20.765625 -0.390625 C 19.304688 -0.597656 17.972656 -0.9375 16.765625 -1.40625 C 14.203125 -2.300781 12.164062 -3.738281 10.65625 -5.71875 C 9.09375 -7.757812 7.96875 -10.320312 7.28125 -13.40625 C 7.019531 -14.707031 6.796875 -16.140625 6.609375 -17.703125 C 6.429688 -19.273438 6.316406 -20.972656 6.265625 -22.796875 L 6.265625 -23.1875 L 6.421875 -33.0625 C 6.578125 -33.632812 6.863281 -34.289062 7.28125 -35.03125 C 8.4375 -37.0625 10.210938 -38.15625 12.609375 -38.3125 L 53.046875 -38.390625 C 53.359375 -38.390625 53.800781 -38.242188 54.375 -37.953125 C 54.957031 -37.671875 55.25 -36.929688 55.25 -35.734375 L 55.25 -29.546875 C 55.25 -28.335938 54.957031 -27.578125 54.375 -27.265625 C 53.800781 -26.953125 53.359375 -26.796875 53.046875 -26.796875 L 18.015625 -26.796875 C 18.015625 -26.796875 18 -26.507812 17.96875 -25.9375 C 17.945312 -25.363281 17.921875 -24.707031 17.890625 -23.96875 C 17.867188 -23.238281 17.859375 -22.585938 17.859375 -22.015625 C 17.859375 -21.441406 17.859375 -21.15625 17.859375 -21.15625 C 17.910156 -20.945312 17.9375 -20.722656 17.9375 -20.484375 C 17.9375 -20.253906 17.960938 -20.035156 18.015625 -19.828125 C 18.234375 -18.359375 18.679688 -17.179688 19.359375 -16.296875 C 19.984375 -15.515625 20.765625 -14.941406 21.703125 -14.578125 C 22.273438 -14.421875 22.890625 -14.289062 23.546875 -14.1875 C 24.203125 -14.082031 24.945312 -14.03125 25.78125 -14.03125 Z M 13.171875 -37.6875 Z M 53.4375 -64.71875 C 53.75 -64.71875 54.191406 -64.5625 54.765625 -64.25 C 55.347656 -63.9375 55.640625 -63.179688 55.640625 -61.984375 L 55.640625 -55.796875 C 55.640625 -54.585938 55.347656 -53.828125 54.765625 -53.515625 C 54.191406 -53.203125 53.75 -53.046875 53.4375 -53.046875 L 8.390625 -53.125 C 8.078125 -53.125 7.644531 -53.265625 7.09375 -53.546875 C 6.539062 -53.835938 6.265625 -54.585938 6.265625 -55.796875 L 6.265625 -61.90625 C 6.265625 -63.15625 6.539062 -63.9375 7.09375 -64.25 C 7.644531 -64.5625 8.078125 -64.71875 8.390625 -64.71875 Z M 53.4375 -64.71875 "/></g></g></g><g fill="#ffffff" fill-opacity="1"><g transform="translate(468.943866, 66.982417)"><g><path d="M 59.703125 -45.84375 L 59.703125 -45.375 C 59.703125 -45.425781 59.703125 -45.460938 59.703125 -45.484375 C 59.703125 -45.515625 59.703125 -45.554688 59.703125 -45.609375 C 59.703125 -45.660156 59.703125 -45.695312 59.703125 -45.71875 C 59.703125 -45.75 59.703125 -45.789062 59.703125 -45.84375 Z M 61.203125 -3.375 C 61.515625 -2.957031 61.617188 -2.328125 61.515625 -1.484375 C 61.359375 -0.441406 60.753906 0.078125 59.703125 0.078125 L 51.09375 0.078125 C 50.414062 0.078125 49.863281 -0.078125 49.4375 -0.390625 C 49.28125 -0.492188 49.132812 -0.648438 49 -0.859375 C 48.875 -1.066406 48.734375 -1.273438 48.578125 -1.484375 L 34.40625 -26.640625 L 17.859375 -26.640625 L 17.859375 -2.671875 C 17.859375 -1.460938 17.582031 -0.703125 17.03125 -0.390625 C 16.488281 -0.078125 16.035156 0.078125 15.671875 0.078125 L 8.546875 0.078125 C 8.179688 0.078125 7.707031 -0.078125 7.125 -0.390625 C 6.550781 -0.703125 6.265625 -1.460938 6.265625 -2.671875 L 6.265625 -35.578125 C 6.265625 -36.773438 6.550781 -37.515625 7.125 -37.796875 C 7.707031 -38.085938 8.179688 -38.234375 8.546875 -38.234375 L 42.625 -38.234375 C 44.613281 -38.234375 46 -38.8125 46.78125 -39.96875 C 47.613281 -41.113281 48.03125 -42.992188 48.03125 -45.609375 C 48.03125 -48.210938 47.613281 -50.09375 46.78125 -51.25 C 46 -52.394531 44.613281 -52.96875 42.625 -52.96875 L 8.546875 -52.96875 C 8.179688 -52.96875 7.707031 -53.109375 7.125 -53.390625 C 6.550781 -53.679688 6.265625 -54.429688 6.265625 -55.640625 L 6.265625 -61.828125 C 6.265625 -63.078125 6.550781 -63.84375 7.125 -64.125 C 7.707031 -64.414062 8.179688 -64.5625 8.546875 -64.5625 L 44.671875 -64.5625 C 50.046875 -64.5625 53.910156 -62.890625 56.265625 -59.546875 C 58.503906 -56.304688 59.648438 -51.660156 59.703125 -45.609375 C 59.648438 -39.546875 58.503906 -34.894531 56.265625 -31.65625 C 54.273438 -28.9375 51.347656 -27.34375 47.484375 -26.875 Z M 61.203125 -3.375 "/></g></g></g><g fill="#ffffff" fill-opacity="1"><g transform="translate(536.163983, 66.982417)"><g><path d="M 14.421875 -11.28125 C 15.253906 -11.28125 15.96875 -10.992188 16.5625 -10.421875 C 17.164062 -9.847656 17.46875 -9.117188 17.46875 -8.234375 L 17.46875 -3.140625 C 17.46875 -2.296875 17.164062 -1.570312 16.5625 -0.96875 C 15.96875 -0.375 15.253906 -0.078125 14.421875 -0.078125 L 9.328125 -0.078125 C 8.492188 -0.078125 7.773438 -0.375 7.171875 -0.96875 C 6.566406 -1.570312 6.265625 -2.296875 6.265625 -3.140625 L 6.265625 -8.234375 C 6.265625 -9.117188 6.566406 -9.847656 7.171875 -10.421875 C 7.773438 -10.992188 8.492188 -11.28125 9.328125 -11.28125 Z M 14.421875 -11.28125 "/></g></g></g><g fill="#ffffff" fill-opacity="1"><g transform="translate(559.275424, 66.982417)"><g><path d="M 15.671875 -64.5625 C 15.984375 -64.5625 16.425781 -64.40625 17 -64.09375 C 17.570312 -63.78125 17.859375 -63.023438 17.859375 -61.828125 L 17.859375 -2.671875 C 17.859375 -1.460938 17.570312 -0.703125 17 -0.390625 C 16.425781 -0.078125 15.984375 0.078125 15.671875 0.078125 L 8.46875 0.078125 C 8.15625 0.078125 7.707031 -0.078125 7.125 -0.390625 C 6.550781 -0.703125 6.265625 -1.460938 6.265625 -2.671875 L 6.265625 -61.828125 C 6.265625 -63.023438 6.550781 -63.78125 7.125 -64.09375 C 7.707031 -64.40625 8.15625 -64.5625 8.46875 -64.5625 Z M 15.671875 -64.5625 "/></g></g></g><g fill="#ffffff" fill-opacity="1"><g transform="translate(582.778633, 66.982417)"><g><path d="M 59.625 -58.84375 C 61.144531 -56.96875 62.269531 -54.410156 63 -51.171875 C 63.3125 -49.648438 63.554688 -47.945312 63.734375 -46.0625 C 63.921875 -44.1875 64.015625 -42.179688 64.015625 -40.046875 L 64.015625 -24.53125 C 64.015625 -22.332031 63.921875 -20.289062 63.734375 -18.40625 C 63.554688 -16.53125 63.3125 -14.835938 63 -13.328125 C 62.269531 -10.140625 61.144531 -7.550781 59.625 -5.5625 C 58.007812 -3.519531 55.972656 -2.082031 53.515625 -1.25 C 51.015625 -0.363281 48.066406 0.078125 44.671875 0.078125 L 25.546875 0.078125 C 22.097656 0.078125 19.171875 -0.363281 16.765625 -1.25 C 14.316406 -2.082031 12.28125 -3.546875 10.65625 -5.640625 C 9.09375 -7.679688 7.96875 -10.242188 7.28125 -13.328125 C 6.914062 -14.835938 6.65625 -16.53125 6.5 -18.40625 C 6.34375 -20.289062 6.265625 -22.332031 6.265625 -24.53125 L 6.265625 -40.046875 C 6.265625 -44.535156 6.601562 -48.242188 7.28125 -51.171875 C 7.96875 -54.253906 9.09375 -56.8125 10.65625 -58.84375 C 12.28125 -60.832031 14.316406 -62.296875 16.765625 -63.234375 C 19.273438 -64.117188 22.203125 -64.5625 25.546875 -64.5625 L 44.671875 -64.5625 C 48.066406 -64.5625 51.015625 -64.117188 53.515625 -63.234375 C 55.972656 -62.296875 58.007812 -60.832031 59.625 -58.84375 Z M 52.34375 -41.375 C 52.34375 -42.519531 52.316406 -43.578125 52.265625 -44.546875 C 52.210938 -45.515625 52.109375 -46.390625 51.953125 -47.171875 C 51.742188 -48.628906 51.300781 -49.804688 50.625 -50.703125 C 50.101562 -51.429688 49.316406 -52.003906 48.265625 -52.421875 C 47.742188 -52.578125 47.15625 -52.707031 46.5 -52.8125 C 45.851562 -52.914062 45.109375 -52.96875 44.265625 -52.96875 L 25.9375 -52.96875 C 25.101562 -52.96875 24.359375 -52.914062 23.703125 -52.8125 C 23.046875 -52.707031 22.457031 -52.578125 21.9375 -52.421875 C 20.894531 -52.003906 20.113281 -51.429688 19.59375 -50.703125 C 19.28125 -50.285156 19.019531 -49.773438 18.8125 -49.171875 C 18.601562 -48.566406 18.414062 -47.898438 18.25 -47.171875 C 18.144531 -46.390625 18.050781 -45.515625 17.96875 -44.546875 C 17.894531 -43.578125 17.859375 -42.519531 17.859375 -41.375 L 17.859375 -23.109375 C 17.859375 -21.960938 17.894531 -20.90625 17.96875 -19.9375 C 18.050781 -18.976562 18.144531 -18.101562 18.25 -17.3125 C 18.414062 -16.632812 18.601562 -15.992188 18.8125 -15.390625 C 19.019531 -14.796875 19.28125 -14.289062 19.59375 -13.875 C 20.113281 -13.03125 20.894531 -12.453125 21.9375 -12.140625 C 22.875 -11.773438 24.207031 -11.59375 25.9375 -11.59375 L 44.265625 -11.59375 C 45.992188 -11.59375 47.328125 -11.773438 48.265625 -12.140625 C 49.316406 -12.453125 50.101562 -13.03125 50.625 -13.875 C 51.25 -14.65625 51.691406 -15.800781 51.953125 -17.3125 C 52.109375 -18.101562 52.210938 -18.976562 52.265625 -19.9375 C 52.316406 -20.90625 52.34375 -21.960938 52.34375 -23.109375 Z M 52.34375 -41.375 "/></g></g></g></g></g><g fill="#ffffff" fill-opacity="1"><g transform="translate(430.032473, 1117.726396)"><g><path d="M 12 0 L 12 -33.796875 L 0.671875 -33.796875 L 0.671875 -38.140625 L 28.046875 -38.140625 L 28.046875 -33.796875 L 16.71875 -33.796875 L 16.71875 0 Z M 12 0 "/></g></g></g><g fill="#ffffff" fill-opacity="1"><g transform="translate(461.438022, 1117.726396)"><g><path d="M 4.5 0 L 4.5 -38.140625 L 25.359375 -38.140625 L 30.734375 -32.703125 L 30.734375 -20.546875 L 25.359375 -15.109375 L 25.203125 -15.109375 L 32.078125 0 L 26.859375 0 L 20.078125 -15.109375 L 9.21875 -15.109375 L 9.21875 0 Z M 9.21875 -19.296875 L 23.234375 -19.296875 L 26.03125 -22.15625 L 26.03125 -31.109375 L 23.234375 -33.953125 L 9.21875 -33.953125 Z M 9.21875 -19.296875 "/></g></g></g><g fill="#ffffff" fill-opacity="1"><g transform="translate(499.155629, 1117.726396)"><g><path d="M 9.21875 0 L 3.78125 -5.4375 L 3.78125 -38.140625 L 8.484375 -38.140625 L 8.484375 -7.03125 L 11.328125 -4.1875 L 25.046875 -4.1875 L 27.890625 -7.03125 L 27.890625 -38.140625 L 32.609375 -38.140625 L 32.609375 -5.4375 L 27.171875 0 Z M 9.21875 0 "/></g></g></g><g fill="#ffffff" fill-opacity="1"><g transform="translate(538.21843, 1117.726396)"><g><path d="M 4.546875 0 L 4.546875 -4.34375 L 23.34375 -4.34375 L 26.140625 -7.1875 L 26.140625 -14.796875 L 23.34375 -17.640625 L 8.59375 -17.640625 L 3.203125 -23.03125 L 3.203125 -32.703125 L 8.59375 -38.140625 L 28.875 -38.140625 L 28.875 -33.796875 L 10.71875 -33.796875 L 7.859375 -30.953125 L 7.921875 -24.640625 L 10.71875 -21.78125 L 25.46875 -21.78125 L 30.84375 -16.359375 L 30.84375 -5.4375 L 25.46875 0 Z M 4.546875 0 "/></g></g></g><g fill="#ffffff" fill-opacity="1"><g transform="translate(574.953012, 1117.726396)"><g><path d="M 12 0 L 12 -33.796875 L 0.671875 -33.796875 L 0.671875 -38.140625 L 28.046875 -38.140625 L 28.046875 -33.796875 L 16.71875 -33.796875 L 16.71875 0 Z M 12 0 "/></g></g></g><g fill="#ffffff" fill-opacity="1"><g transform="translate(606.358561, 1117.726396)"><g/></g></g><g fill="#ffffff" fill-opacity="1"><g transform="translate(620.535294, 1117.726396)"><g><path d="M 4.5 0 L 4.5 -38.140625 L 24.9375 -38.140625 L 30.328125 -32.703125 L 30.328125 -23.75 L 27.9375 -20.546875 L 32.34375 -16.09375 L 32.34375 -5.4375 L 26.90625 0 Z M 9.21875 -22.15625 L 23.4375 -22.15625 L 25.609375 -25.09375 L 25.609375 -31.109375 L 22.828125 -34 L 9.21875 -33.953125 Z M 9.21875 -4.1875 L 24.78125 -4.1875 L 27.640625 -7.03125 L 27.640625 -14.859375 L 24.640625 -17.953125 L 9.21875 -17.953125 Z M 9.21875 -4.1875 "/></g></g></g><g fill="#ffffff" fill-opacity="1"><g transform="translate(658.925504, 1117.726396)"><g><path d="M 9.21875 0 L 3.78125 -5.4375 L 3.78125 -38.140625 L 8.484375 -38.140625 L 8.484375 -7.03125 L 11.328125 -4.1875 L 25.046875 -4.1875 L 27.890625 -7.03125 L 27.890625 -38.140625 L 32.609375 -38.140625 L 32.609375 -5.4375 L 27.171875 0 Z M 9.21875 0 "/></g></g></g><g fill="#ffffff" fill-opacity="1"><g transform="translate(697.988306, 1117.726396)"><g><path d="M 3.203125 0 L 3.203125 -4.34375 L 7.859375 -4.34375 L 7.859375 -33.796875 L 3.203125 -33.796875 L 3.203125 -38.140625 L 17.234375 -38.140625 L 17.234375 -33.796875 L 12.578125 -33.796875 L 12.578125 -4.34375 L 17.234375 -4.34375 L 17.234375 0 Z M 3.203125 0 "/></g></g></g><g fill="#ffffff" fill-opacity="1"><g transform="translate(721.115737, 1117.726396)"><g><path d="M 4.5 0 L 4.5 -38.140625 L 9.21875 -38.140625 L 9.21875 -4.34375 L 28.40625 -4.34375 L 28.40625 0 Z M 4.5 0 "/></g></g></g><g fill="#ffffff" fill-opacity="1"><g transform="translate(752.72823, 1117.726396)"><g><path d="M 12 0 L 12 -33.796875 L 0.671875 -33.796875 L 0.671875 -38.140625 L 28.046875 -38.140625 L 28.046875 -33.796875 L 16.71875 -33.796875 L 16.71875 0 Z M 12 0 "/></g></g></g><g fill="#ffffff" fill-opacity="1"><g transform="translate(784.13379, 1117.726396)"><g/></g></g><g fill="#ffffff" fill-opacity="1"><g transform="translate(798.310524, 1117.726396)"><g><path d="M 8.953125 0 L 3.515625 -5.4375 L 3.515625 -32.703125 L 8.953125 -38.140625 L 26.96875 -38.140625 L 32.390625 -32.703125 L 32.390625 -5.4375 L 26.96875 0 Z M 11.078125 -4.1875 L 24.84375 -4.1875 L 27.6875 -7.03125 L 27.6875 -31.109375 L 24.84375 -33.953125 L 11.078125 -33.953125 L 8.234375 -31.109375 L 8.234375 -7.03125 Z M 11.078125 -4.1875 "/></g></g></g><g fill="#ffffff" fill-opacity="1"><g transform="translate(836.907666, 1117.726396)"><g><path d="M 4.5 0 L 4.5 -38.140625 L 10.921875 -38.140625 L 27.9375 -7.453125 L 27.9375 -38.140625 L 32.65625 -38.140625 L 32.65625 0 L 27.0625 0 L 10.34375 -30.125 L 9.21875 -30.125 L 9.21875 0 Z M 4.5 0 "/></g></g></g><g fill="#ffffff" fill-opacity="1"><g transform="translate(876.74656, 1117.726396)"><g/></g></g><g fill="#ffffff" fill-opacity="1"><g transform="translate(890.923271, 1117.726396)"><g><path d="M 4.5 0 L 4.5 -38.140625 L 24.640625 -38.140625 L 30.015625 -32.703125 L 30.015625 -19.609375 L 24.640625 -14.171875 L 9.21875 -14.171875 L 9.21875 0 Z M 9.21875 -18.375 L 22.515625 -18.375 L 25.3125 -21.21875 L 25.3125 -31.109375 L 22.515625 -34 L 9.21875 -33.953125 Z M 9.21875 -18.375 "/></g></g></g><g fill="#ffffff" fill-opacity="1"><g transform="translate(925.174427, 1117.726396)"><g><path d="M 4.5 0 L 4.5 -38.140625 L 25.359375 -38.140625 L 30.734375 -32.703125 L 30.734375 -20.546875 L 25.359375 -15.109375 L 25.203125 -15.109375 L 32.078125 0 L 26.859375 0 L 20.078125 -15.109375 L 9.21875 -15.109375 L 9.21875 0 Z M 9.21875 -19.296875 L 23.234375 -19.296875 L 26.03125 -22.15625 L 26.03125 -31.109375 L 23.234375 -33.953125 L 9.21875 -33.953125 Z M 9.21875 -19.296875 "/></g></g></g><g fill="#ffffff" fill-opacity="1"><g transform="translate(962.892045, 1117.726396)"><g><path d="M 8.953125 0 L 3.515625 -5.4375 L 3.515625 -32.703125 L 8.953125 -38.140625 L 26.96875 -38.140625 L 32.390625 -32.703125 L 32.390625 -5.4375 L 26.96875 0 Z M 11.078125 -4.1875 L 24.84375 -4.1875 L 27.6875 -7.03125 L 27.6875 -31.109375 L 24.84375 -33.953125 L 11.078125 -33.953125 L 8.234375 -31.109375 L 8.234375 -7.03125 Z M 11.078125 -4.1875 "/></g></g></g><g fill="#ffffff" fill-opacity="1"><g transform="translate(1001.48921, 1117.726396)"><g><path d="M 8.953125 0 L 3.515625 -5.4375 L 3.515625 -32.703125 L 8.953125 -38.140625 L 26.96875 -38.140625 L 32.390625 -32.703125 L 32.390625 -5.4375 L 26.96875 0 Z M 11.078125 -4.1875 L 24.84375 -4.1875 L 27.6875 -7.03125 L 27.6875 -31.109375 L 24.84375 -33.953125 L 11.078125 -33.953125 L 8.234375 -31.109375 L 8.234375 -7.03125 Z M 11.078125 -4.1875 "/></g></g></g><g fill="#ffffff" fill-opacity="1"><g transform="translate(1040.086329, 1117.726396)"><g><path d="M 4.5 0 L 4.5 -38.140625 L 29.078125 -38.140625 L 29.078125 -33.796875 L 9.21875 -33.796875 L 9.21875 -21.46875 L 26.65625 -21.46875 L 26.65625 -17.1875 L 9.21875 -17.1875 L 9.21875 0 Z M 4.5 0 "/></g></g></g></svg>